HIERARCHY
ROOT Junyuan_V1:Solving:Hips
{
	OFFSET 0.000000 0.000000 0.000000
	CHANNELS 6 Xposition Yposition Zposition Xrotation Yrotation Zrotation
	JOINT Junyuan_V1:Solving:Spine
	{
		OFFSET 0.000000 -11.180205 2.228564
		CHANNELS 6 Xposition Yposition Zposition Xrotation Yrotation Zrotation
		JOINT Junyuan_V1:Solving:Spine1
		{
			OFFSET 0.000000 -8.682996 1.531049
			CHANNELS 6 Xposition Yposition Zposition Xrotation Yrotation Zrotation
			JOINT Junyuan_V1:Solving:Spine2
			{
				OFFSET 0.000000 -8.783394 0.768450
				CHANNELS 6 Xposition Yposition Zposition Xrotation Yrotation Zrotation
				JOINT Junyuan_V1:Solving:Spine3
				{
					OFFSET 0.000000 -8.816944 0.000000
					CHANNELS 6 Xposition Yposition Zposition Xrotation Yrotation Zrotation
					JOINT Junyuan_V1:Solving:Neck
					{
						OFFSET 0.000000 -11.336071 -1.133605
						CHANNELS 6 Xposition Yposition Zposition Xrotation Yrotation Zrotation
						JOINT Junyuan_V1:Solving:Neck1
						{
							OFFSET 0.000000 -7.643246 -0.668695
							CHANNELS 6 Xposition Yposition Zposition Xrotation Yrotation Zrotation
							JOINT Junyuan_V1:Solving:Head
							{
								OFFSET 0.000000 -7.555870 -1.332303
								CHANNELS 6 Xposition Yposition Zposition Xrotation Yrotation Zrotation
								JOINT Junyuan_V1:Solving:HeadEnd
								{
									OFFSET 0.000000 -9.728081 0.000002
									CHANNELS 6 Xposition Yposition Zposition Xrotation Yrotation Zrotation
									End Site
									{
										OFFSET 0.000000 -9.728081 0.000002
									}
								}
							}
						}
					}
					JOINT Junyuan_V1:Solving:RightShoulder
					{
						OFFSET 0.000000 -8.097195 -5.270916
						CHANNELS 6 Xposition Yposition Zposition Xrotation Yrotation Zrotation
						JOINT Junyuan_V1:Solving:RightArm
						{
							OFFSET -20.762394 -0.000008 0.000000
							CHANNELS 6 Xposition Yposition Zposition Xrotation Yrotation Zrotation
							JOINT Junyuan_V1:Solving:RightForeArm
							{
								OFFSET -29.048946 -0.000008 0.000000
								CHANNELS 6 Xposition Yposition Zposition Xrotation Yrotation Zrotation
								JOINT Junyuan_V1:Solving:RightHand
								{
									OFFSET -22.031235 -0.000008 0.000000
									CHANNELS 6 Xposition Yposition Zposition Xrotation Yrotation Zrotation
									JOINT Junyuan_V1:Solving:RightHandThumb1
									{
										OFFSET -3.579254 2.890213 -2.661497
										CHANNELS 6 Xposition Yposition Zposition Xrotation Yrotation Zrotation
										End Site
										{
											OFFSET -5.229485 0.000000 -5.277840
										}
									}
									JOINT Junyuan_V1:Solving:RightHandMiddle1
									{
										OFFSET -9.544678 -0.000004 0.061184
										CHANNELS 6 Xposition Yposition Zposition Xrotation Yrotation Zrotation
										End Site
										{
											OFFSET -7.429878 -0.000004 0.000000
										}
									}
								}
							}
						}
					}
					JOINT Junyuan_V1:Solving:LeftShoulder
					{
						OFFSET 0.000000 -8.097195 -5.270916
						CHANNELS 6 Xposition Yposition Zposition Xrotation Yrotation Zrotation
						JOINT Junyuan_V1:Solving:LeftArm
						{
							OFFSET 20.762394 -0.000008 0.000000
							CHANNELS 6 Xposition Yposition Zposition Xrotation Yrotation Zrotation
							JOINT Junyuan_V1:Solving:LeftForeArm
							{
								OFFSET 29.048946 -0.000008 0.000000
								CHANNELS 6 Xposition Yposition Zposition Xrotation Yrotation Zrotation
								JOINT Junyuan_V1:Solving:LeftHand
								{
									OFFSET 22.031235 -0.000008 0.000000
									CHANNELS 6 Xposition Yposition Zposition Xrotation Yrotation Zrotation
									JOINT Junyuan_V1:Solving:LeftHandThumb1
									{
										OFFSET 3.579254 2.890213 -2.661497
										CHANNELS 6 Xposition Yposition Zposition Xrotation Yrotation Zrotation
										End Site
										{
											OFFSET 5.229485 0.000000 -5.277840
										}
									}
									JOINT Junyuan_V1:Solving:LeftHandMiddle1
									{
										OFFSET 9.544678 -0.000004 0.061184
										CHANNELS 6 Xposition Yposition Zposition Xrotation Yrotation Zrotation
										End Site
										{
											OFFSET 7.429878 -0.000004 0.000000
										}
									}
								}
							}
						}
					}
				}
			}
		}
	}
	JOINT Junyuan_V1:Solving:RightUpLeg
	{
		OFFSET -10.825166 0.000000 0.000000
		CHANNELS 6 Xposition Yposition Zposition Xrotation Yrotation Zrotation
		JOINT Junyuan_V1:Solving:RightLeg
		{
			OFFSET 0.000000 43.678444 -0.000006
			CHANNELS 6 Xposition Yposition Zposition Xrotation Yrotation Zrotation
			JOINT Junyuan_V1:Solving:RightFoot
			{
				OFFSET 0.000000 36.488441 -0.000006
				CHANNELS 6 Xposition Yposition Zposition Xrotation Yrotation Zrotation
				JOINT Junyuan_V1:Solving:RightForeFoot
				{
					OFFSET 0.000000 3.967834 -0.000000
					CHANNELS 6 Xposition Yposition Zposition Xrotation Yrotation Zrotation
					JOINT Junyuan_V1:Solving:RightToeBase
					{
						OFFSET 0.000000 0.000000 -15.539299
						CHANNELS 6 Xposition Yposition Zposition Xrotation Yrotation Zrotation
						JOINT Junyuan_V1:Solving:RightToeBaseEnd
						{
							OFFSET 0.000000 0.000000 -3.486985
							CHANNELS 6 Xposition Yposition Zposition Xrotation Yrotation Zrotation
							End Site
							{
								OFFSET 0.000000 -3.486992 0.000000
							}
						}
					}
				}
			}
		}
	}
	JOINT Junyuan_V1:Solving:LeftUpLeg
	{
		OFFSET 10.825166 0.000000 0.000000
		CHANNELS 6 Xposition Yposition Zposition Xrotation Yrotation Zrotation
		JOINT Junyuan_V1:Solving:LeftLeg
		{
			OFFSET 0.000000 43.678444 -0.000006
			CHANNELS 6 Xposition Yposition Zposition Xrotation Yrotation Zrotation
			JOINT Junyuan_V1:Solving:LeftFoot
			{
				OFFSET 0.000000 36.488441 -0.000006
				CHANNELS 6 Xposition Yposition Zposition Xrotation Yrotation Zrotation
				JOINT Junyuan_V1:Solving:LeftForeFoot
				{
					OFFSET 0.000000 3.967834 -0.000000
					CHANNELS 6 Xposition Yposition Zposition Xrotation Yrotation Zrotation
					JOINT Junyuan_V1:Solving:LeftToeBase
					{
						OFFSET 0.000000 0.000000 -15.539299
						CHANNELS 6 Xposition Yposition Zposition Xrotation Yrotation Zrotation
						JOINT Junyuan_V1:Solving:LeftToeBaseEnd
						{
							OFFSET 0.000000 0.000000 -3.974441
							CHANNELS 6 Xposition Yposition Zposition Xrotation Yrotation Zrotation
							End Site
							{
								OFFSET 0.000000 -3.974442 0.000000
							}
						}
					}
				}
			}
		}
	}
}
MOTION
Frames: 4
Frame Time: 0.041667
-51.056885 -25.148796 -89.356949 87.542214 -169.212213 -0.897111 0.000003 -11.180200 2.228565 13.790840 0.651143 4.170145 -0.000008 -8.683000 1.531048 0.243881 -0.215462 0.859732 -0.000002 -8.783381 0.768445 -0.413005 -2.871575 0.759243 -0.000005 -8.816925 -0.000004 1.311548 0.117696 0.038347 -0.000013 -11.336070 -1.133602 -12.787577 -4.381723 0.917081 0.000005 -7.643232 -0.668704 5.174860 0.457699 -0.214696 0.000001 -7.555889 -1.332308 13.587036 -0.003947 -0.231446 0.000003 -9.728104 -0.000005 0.000003 -0.000000 -0.000000 -0.000010 -8.097187 -5.270907 -0.000006 17.663054 10.618983 -20.762384 -0.000016 0.000019 -17.028790 -32.814947 -90.955730 -29.048956 -0.000010 -0.000003 -2.039167 -9.423071 -0.334002 -22.031248 -0.000009 0.000000 0.504262 -0.769130 33.253780 -3.579243 2.890223 -2.661488 0.000007 -0.000000 0.000005 -9.544681 -0.000005 0.061187 0.000001 0.000005 -0.000003 -0.000007 -8.097195 -5.270903 -0.000003 -20.239075 -15.099699 20.762384 -0.000051 0.000009 -14.167333 37.599915 85.174474 29.048929 0.000005 -0.000008 -15.378613 12.055875 3.287860 22.031231 -0.000001 0.000014 -0.637363 -2.664143 -13.459107 3.579248 2.890229 -2.661501 0.000000 0.000002 -0.000009 9.544691 0.000002 0.061183 -0.000002 -0.000002 -0.000002 -10.825173 0.000009 -0.000004 -10.599466 4.804069 -2.100855 -0.000005 43.678436 -0.000002 17.472906 -0.000003 0.000001 0.000008 36.488422 -0.000007 -0.425538 9.537803 -0.615411 0.000003 3.967819 0.000006 -0.000001 -0.000004 0.000000 0.000002 -0.000003 -15.539289 6.956185 0.000002 0.000001 0.000006 -0.000015 -3.486984 0.000001 0.000001 0.000001 10.825164 0.000014 0.000005 -1.097545 -11.457091 0.923578 -0.000008 43.678455 -0.000004 -0.518419 -0.000000 0.000000 -0.000004 36.488426 -0.000004 11.230970 2.350627 -4.064162 0.000004 3.967827 0.000000 0.000001 0.000000 -0.000000 -0.000010 0.000004 -15.539298 -1.847114 -0.000000 -0.000000 -0.000003 -0.000008 -3.974438 0.000000 0.000000 -0.000000 
-50.999680 -24.971840 -89.314323 87.370789 -168.871305 -0.905279 -0.000003 -11.180210 2.228563 13.873822 0.675573 4.301737 0.000003 -8.682986 1.531047 0.298618 -0.221344 0.884125 -0.000003 -8.783390 0.768446 -0.316983 -2.909904 0.797757 -0.000002 -8.816946 0.000006 1.371009 0.116960 0.052948 0.000000 -11.336065 -1.133612 -12.852352 -4.455454 0.907739 0.000003 -7.643249 -0.668696 5.182826 0.413292 -0.222398 0.000000 -7.555865 -1.332305 13.585357 -0.006010 -0.236225 0.000003 -9.728119 0.000009 0.000001 -0.000000 0.000000 -0.000005 -8.097195 -5.270921 -0.000009 17.490229 10.468566 -20.762386 -0.000019 0.000007 -17.483075 -33.691780 -92.015974 -29.048937 -0.000003 0.000001 -1.775800 -10.173683 -0.313766 -22.031231 -0.000012 0.000000 0.466911 -0.731198 32.564214 -3.579279 2.890197 -2.661495 0.000007 -0.000003 -0.000003 -9.544704 -0.000015 0.061180 0.000003 0.000001 -0.000005 -0.000005 -8.097191 -5.270920 -0.000012 -20.156008 -14.939958 20.762390 0.000001 0.000010 -14.562737 38.817539 85.786315 29.048950 -0.000020 -0.000001 -15.309797 12.715318 3.448174 22.031240 -0.000021 0.000000 -0.556068 -2.497915 -12.554073 3.579257 2.890201 -2.661493 -0.000003 -0.000002 -0.000007 9.544683 -0.000006 0.061181 -0.000004 -0.000002 -0.000003 -10.825165 -0.000013 0.000000 -11.299066 4.919250 -2.096628 0.000009 43.678440 -0.000008 18.277135 -0.000002 0.000001 -0.000001 36.488426 -0.000013 -0.656606 9.381347 -1.140664 -0.000001 3.967827 0.000009 -0.000000 0.000002 -0.000002 0.000009 0.000013 -15.539298 6.991727 0.000001 -0.000001 0.000017 -0.000008 -3.486985 -0.000001 -0.000008 0.000001 10.825154 0.000007 0.000002 -1.315213 -11.418551 0.810590 -0.000011 43.678452 -0.000005 -0.565032 0.000000 0.000000 -0.000008 36.488430 0.000001 11.109335 2.058791 -3.709323 0.000017 3.967827 -0.000002 0.000001 0.000000 -0.000000 -0.000006 -0.000006 -15.539305 -1.684985 -0.000000 0.000000 -0.000001 -0.000008 -3.974441 -0.000000 0.000000 -0.000000 
-50.942417 -24.798159 -89.273743 87.185008 -168.532828 -0.929036 0.000000 -11.180214 2.228568 13.939592 0.696738 4.429479 0.000004 -8.683001 1.531049 0.339535 -0.226501 0.907266 -0.000003 -8.783411 0.768453 -0.211867 -2.946957 0.842221 -0.000002 -8.816952 0.000003 1.443839 0.119572 0.074340 0.000004 -11.336074 -1.133609 -12.906471 -4.533466 0.904598 0.000006 -7.643245 -0.668696 5.166126 0.361957 -0.233622 -0.000004 -7.555888 -1.332309 13.593275 -0.008372 -0.230210 -0.000009 -9.728050 0.000000 0.000002 -0.000001 -0.000000 0.000014 -8.097179 -5.270926 -0.000003 17.295528 10.311468 -20.762396 -0.000020 0.000003 -17.874916 -34.441427 -93.010285 -29.048880 -0.000015 0.000000 -1.502493 -11.069915 -0.288561 -22.031237 -0.000012 0.000004 0.401892 -0.644514 31.949965 -3.579262 2.890188 -2.661491 -0.000003 -0.000002 0.000000 -9.544692 -0.000022 0.061186 -0.000002 -0.000000 0.000001 0.000016 -8.097183 -5.270930 -0.000006 -20.072867 -14.764313 20.762396 -0.000024 0.000006 -14.993723 40.030356 86.370795 29.048992 -0.000005 -0.000017 -15.194803 13.368590 3.593284 22.031233 -0.000002 -0.000003 -0.471214 -2.270833 -11.725880 3.579260 2.890206 -2.661501 0.000004 0.000009 -0.000002 9.544696 -0.000017 0.061194 0.000004 0.000000 0.000004 -10.825166 -0.000012 0.000004 -12.008845 5.154090 -2.057064 -0.000006 43.678459 -0.000007 19.097658 -0.000001 0.000001 0.000003 36.488426 -0.000005 -0.950844 9.199791 -1.808455 0.000001 3.967827 -0.000001 -0.000001 -0.000003 0.000000 -0.000003 0.000007 -15.539302 7.051024 -0.000006 0.000002 -0.000014 -0.000007 -3.486981 0.000001 0.000001 0.000001 10.825160 -0.000015 0.000002 -1.532483 -11.300304 0.718190 0.000006 43.678421 -0.000007 -0.636133 -0.000000 -0.000000 0.000003 36.488445 -0.000003 11.018812 1.656280 -3.361577 0.000007 3.967827 0.000002 -0.000001 0.000000 -0.000000 0.000006 0.000020 -15.539296 -1.517420 -0.000000 0.000000 0.000011 -0.000008 -3.974444 -0.000001 0.000000 -0.000000 
-50.887821 -24.625101 -89.235214 86.987992 -168.210019 -0.969292 -0.000006 -11.180212 2.228564 14.003659 0.713785 4.555696 0.000007 -8.682988 1.531044 0.377125 -0.231018 0.927247 0.000001 -8.783395 0.768445 -0.128312 -2.973667 0.882229 0.000005 -8.816954 -0.000004 1.516916 0.123265 0.100897 -0.000009 -11.336057 -1.133596 -12.975769 -4.620504 0.892670 -0.000000 -7.643264 -0.668696 5.217051 0.300096 -0.204315 0.000003 -7.555860 -1.332307 13.607753 -0.017916 -0.200261 0.000009 -9.728096 -0.000001 0.000004 -0.000000 0.000000 -0.000003 -8.097176 -5.270923 -0.000014 17.108545 10.175159 -20.762392 -0.000000 -0.000002 -18.215088 -35.292786 -93.956533 -29.048944 -0.000008 0.000001 -1.282021 -12.100028 -0.268792 -22.031239 -0.000017 -0.000006 0.317055 -0.518821 31.433545 -3.579269 2.890208 -2.661488 0.000007 0.000007 0.000011 -9.544688 -0.000001 0.061190 0.000005 0.000000 0.000006 -0.000002 -8.097176 -5.270926 -0.000017 -19.985875 -14.577155 20.762390 0.000002 0.000019 -15.432840 41.221056 86.923658 29.048954 -0.000029 -0.000012 -15.014118 14.025976 3.719248 22.031231 -0.000013 -0.000005 -0.391266 -2.032826 -10.896501 3.579298 2.890196 -2.661479 -0.000000 0.000002 -0.000003 9.544711 -0.000032 0.061200 0.000002 -0.000002 0.000003 -10.825171 -0.000006 -0.000001 -12.704484 5.457853 -1.983937 0.000000 43.678436 -0.000006 19.892041 -0.000003 0.000004 0.000003 36.488411 -0.000006 -1.316823 8.986229 -2.519309 -0.000002 3.967827 0.000002 0.000002 -0.000001 0.000001 -0.000002 0.000011 -15.539301 7.046051 -0.000001 0.000001 -0.000012 -0.000015 -3.486982 0.000000 0.000004 -0.000002 10.825162 -0.000007 0.000002 -1.758697 -11.236332 0.644172 0.000016 43.678455 -0.000011 -0.708903 0.000000 0.000000 0.000008 36.488445 -0.000005 10.956481 1.314136 -3.067923 -0.000003 3.967827 0.000001 0.000001 0.000000 -0.000000 0.000009 0.000001 -15.539302 -1.388439 -0.000000 0.000000 -0.000004 -0.000008 -3.974439 -0.000002 0.000000 0.000000 
